<?xml version="1.0" standalone="no"?>
<!DOCTYPE svg PUBLIC "-//W3C//DTD SVG 20010904//EN"
 "http://www.w3.org/TR/2001/REC-SVG-20010904/DTD/svg10.dtd">
<svg version="1.0" xmlns="http://www.w3.org/2000/svg"
 width="225.000000pt" height="225.000000pt" viewBox="0 0 225.000000 225.000000"
 preserveAspectRatio="xMidYMid meet">

<g transform="translate(0.000000,225.000000) scale(0.100000,-0.100000)"
fill="#000000" stroke="none">
<path d="M955 1864 c-252 -56 -459 -222 -569 -455 -52 -109 -68 -179 -73 -319
-4 -104 -2 -140 16 -212 59 -250 218 -446 446 -554 213 -100 435 -108 653 -24
244 94 434 314 499 577 24 100 22 285 -6 388 -75 280 -284 497 -566 585 -94
29 -299 37 -400 14z m357 -73 c211 -54 395 -204 488 -396 61 -125 75 -190 74
-340 0 -119 -3 -138 -32 -222 -113 -332 -415 -540 -752 -520 -119 7 -193 26
-295 77 -260 128 -416 378 -417 670 -1 132 19 216 79 340 40 82 59 107 142
190 109 108 185 154 321 194 112 33 279 36 392 7z"/>
<path d="M777 1359 c-79 -18 -151 -78 -145 -120 5 -36 34 -34 73 5 68 69 154
68 226 -1 42 -40 72 -41 77 -2 2 20 -6 34 -34 59 -61 53 -130 74 -197 59z"/>
<path d="M1384 1359 c-42 -10 -116 -65 -135 -101 -7 -14 -7 -23 2 -34 18 -22
37 -17 74 21 68 68 154 67 226 -2 41 -39 72 -41 77 -4 3 15 -6 34 -25 53 -56
59 -140 85 -219 67z"/>
<path d="M604 1043 c-13 -14 -15 -29 -11 -79 18 -194 135 -340 320 -400 70
-22 100 -26 207 -27 190 -1 302 37 405 134 58 55 96 118 120 201 21 72 17 167
-7 182 -31 19 -49 -13 -59 -104 -22 -222 -176 -340 -445 -340 -127 0 -193 12
-270 50 -115 56 -181 159 -193 301 -5 53 -12 83 -21 89 -21 13 -26 12 -46 -7z"/>
</g>
</svg>
